<svg width="44" height="44" viewBox="0 0 44 44" fill="none" xmlns="http://www.w3.org/2000/svg">
<path fill-rule="evenodd" clip-rule="evenodd" d="M33.1567 35.1892C35.0663 35.9812 37.2148 37.0183 37.7212 41.2828C38.2281 37.0183 40.3766 35.9812 42.2862 35.1888C40.3766 34.3968 38.2281 33.3597 37.7212 29.0952C37.2152 33.3597 35.0663 34.3972 33.1567 35.1892Z" fill="#1455D2"/>
<path fill-rule="evenodd" clip-rule="evenodd" d="M5.25188 22.0001C12.3033 24.7171 20.2383 28.2745 22.1096 42.9001C23.98 28.2745 31.9159 24.7171 38.9673 22.0001C31.9159 19.2831 23.9809 15.7257 22.1096 1.1001C20.2387 15.7257 12.3033 19.2831 5.25188 22.0001Z" fill="#1455D2"/>
<path fill-rule="evenodd" clip-rule="evenodd" d="M10.0061 30.9399C8.90037 30.481 7.65649 29.8804 7.36257 27.4111C7.06909 29.8804 5.82478 30.481 4.71906 30.9399C5.82478 31.3989 7.06909 31.9995 7.36257 34.4687C7.65605 31.9995 8.90037 31.3989 10.0061 30.9399Z" fill="#1455D2"/>
<path fill-rule="evenodd" clip-rule="evenodd" d="M8.92676 10.3069C7.41844 9.68123 5.72092 8.86151 5.32052 5.49243C4.92012 8.86151 3.2226 9.68123 1.71384 10.3069C3.2226 10.9326 4.92012 11.7523 5.32052 15.1214C5.72092 11.7523 7.41844 10.9326 8.92676 10.3069Z" fill="#1455D2"/>
</svg>
