<svg width="42" height="42" viewBox="0 0 42 42" fill="none" xmlns="http://www.w3.org/2000/svg">
<path fill-rule="evenodd" clip-rule="evenodd" d="M32.1567 34.1892C34.0663 34.9812 36.2148 36.0183 36.7212 40.2828C37.2281 36.0183 39.3766 34.9812 41.2862 34.1888C39.3766 33.3968 37.2281 32.3597 36.7212 28.0952C36.2152 32.3597 34.0663 33.3972 32.1567 34.1892Z" fill="#1455D2"/>
<path fill-rule="evenodd" clip-rule="evenodd" d="M4.25188 21.0001C11.3033 23.7171 19.2383 27.2745 21.1096 41.9001C22.98 27.2745 30.9159 23.7171 37.9673 21.0001C30.9159 18.2831 22.9809 14.7257 21.1096 0.100098C19.2387 14.7257 11.3033 18.2831 4.25188 21.0001Z" fill="#1455D2"/>
<path fill-rule="evenodd" clip-rule="evenodd" d="M9.00609 29.9399C7.90037 29.481 6.65649 28.8804 6.36257 26.4111C6.06909 28.8804 4.82478 29.481 3.71906 29.9399C4.82478 30.3989 6.06909 30.9995 6.36257 33.4687C6.65605 30.9995 7.90037 30.3989 9.00609 29.9399Z" fill="#1455D2"/>
<path fill-rule="evenodd" clip-rule="evenodd" d="M7.92676 9.30691C6.41844 8.68123 4.72092 7.86151 4.32052 4.49243C3.92012 7.86151 2.2226 8.68123 0.713837 9.30691C2.2226 9.93259 3.92012 10.7523 4.32052 14.1214C4.72092 10.7523 6.41844 9.93259 7.92676 9.30691Z" fill="#1455D2"/>
</svg>
