<svg width="31" height="30" viewBox="0 0 31 30" fill="none" xmlns="http://www.w3.org/2000/svg">
<g clip-path="url(#clip0_251_408)">
<path fill-rule="evenodd" clip-rule="evenodd" d="M1.41341 14.8474L4.02931 12.2352C4.44767 11.8173 5.12542 11.8173 5.54378 12.2352L6.86324 13.5557C7.49968 14.1635 8.50146 14.1635 9.1379 13.5557L16.9999 5.69314C17.0992 5.5935 17.2171 5.51446 17.347 5.46058C17.4769 5.40671 17.6162 5.37905 17.7569 5.3792C17.8977 5.37887 18.0373 5.4065 18.1674 5.46048C18.2975 5.51446 18.4156 5.59372 18.5149 5.69367L20.9052 8.0851C21.542 8.69143 22.5425 8.69143 23.1793 8.0851L28.3408 2.91388C28.4433 2.81706 28.5789 2.76311 28.7198 2.76311C28.8608 2.76311 28.9964 2.81706 29.0989 2.91388L29.8751 3.69118C29.9035 3.71954 29.9396 3.73913 29.9788 3.74759C30.0181 3.75606 30.059 3.75305 30.0966 3.73894C30.1342 3.72482 30.1669 3.70018 30.1909 3.66797C30.2149 3.63575 30.2291 3.59731 30.2319 3.55724L30.4998 0.107259C30.5007 0.0925823 30.4984 0.0778868 30.493 0.0641956C30.4877 0.0505044 30.4794 0.0381466 30.4688 0.0279823C30.4595 0.0184871 30.4483 0.0110903 30.4359 0.00628958C30.4235 0.00148883 30.4102 -0.000604513 30.397 0.00015039L26.9454 0.267981C26.9048 0.269757 26.8656 0.283738 26.833 0.3081C26.8004 0.332463 26.7759 0.366077 26.7627 0.404562C26.7477 0.440757 26.7441 0.480702 26.7524 0.519015C26.7607 0.557327 26.7806 0.592166 26.8093 0.618838L27.5877 1.39883C27.688 1.49927 27.7443 1.6354 27.7443 1.77732C27.7443 1.91924 27.688 2.05536 27.5877 2.1558L22.798 6.94827C22.3739 7.35321 21.7064 7.35321 21.2824 6.94827L18.8921 4.55362C18.2558 3.9456 17.2538 3.9456 16.6175 4.55362L8.37929 12.7971C8.32954 12.8469 8.27045 12.8865 8.20541 12.9134C8.14037 12.9404 8.07066 12.9543 8.00025 12.9543C7.92984 12.9543 7.86012 12.9404 7.79508 12.9134C7.73004 12.8865 7.67096 12.8469 7.62121 12.7971L5.92352 11.0984C5.77426 10.949 5.597 10.8304 5.4019 10.7496C5.20679 10.6687 4.99766 10.6271 4.78646 10.6271C4.57525 10.6271 4.36612 10.6687 4.17102 10.7496C3.97591 10.8304 3.79866 10.949 3.64939 11.0984L0.660719 14.0936C0.610577 14.1424 0.570718 14.2007 0.5435 14.2651C0.516282 14.3295 0.502258 14.3987 0.502258 14.4686C0.502258 14.5385 0.516282 14.6078 0.5435 14.6722C0.570718 14.7366 0.610577 14.7949 0.660719 14.8436C0.761021 14.9421 0.895757 14.9975 1.0363 14.9982C1.17685 14.9989 1.31213 14.9448 1.41341 14.8474ZM12.2857 25.7143H18.7142C18.8563 25.7143 18.9925 25.6578 19.093 25.5574C19.1934 25.4569 19.2499 25.3206 19.2499 25.1786C19.2499 25.0365 19.1934 24.9002 19.093 24.7997C18.9925 24.6993 18.8563 24.6428 18.7142 24.6428H12.2857C12.1436 24.6428 12.0073 24.6993 11.9068 24.7997C11.8064 24.9002 11.7499 25.0365 11.7499 25.1786C11.7499 25.3206 11.8064 25.4569 11.9068 25.5574C12.0073 25.6578 12.1436 25.7143 12.2857 25.7143ZM12.2857 27.8571H18.7142C18.8563 27.8571 18.9925 27.8007 19.093 27.7002C19.1934 27.5997 19.2499 27.4635 19.2499 27.3214C19.2499 27.1793 19.1934 27.043 19.093 26.9426C18.9925 26.8421 18.8563 26.7857 18.7142 26.7857H12.2857C12.1436 26.7857 12.0073 26.8421 11.9068 26.9426C11.8064 27.043 11.7499 27.1793 11.7499 27.3214C11.7499 27.4635 11.8064 27.5997 11.9068 27.7002C12.0073 27.8007 12.1436 27.8571 12.2857 27.8571Z" fill="#1455D2"/>
<path d="M15.4999 15C13.133 15 11.2142 16.9188 11.2142 19.2857C11.2142 21.6527 13.133 23.5714 15.4999 23.5714C17.8669 23.5714 19.7856 21.6527 19.7856 19.2857C19.783 16.9199 17.8658 15.0026 15.4999 15ZM16.0356 21.8657V21.9643C16.0356 22.1064 15.9792 22.2426 15.8787 22.3431C15.7783 22.4436 15.642 22.5 15.4999 22.5C15.3578 22.5 15.2216 22.4436 15.1211 22.3431C15.0206 22.2426 14.9642 22.1064 14.9642 21.9643V21.8571C14.6052 21.7335 14.3015 21.4868 14.107 21.1607C14.0411 21.038 14.0255 20.8945 14.0635 20.7605C14.1016 20.6266 14.1903 20.5127 14.3109 20.443C14.4315 20.3734 14.5745 20.3534 14.7095 20.3874C14.8446 20.4213 14.9611 20.5066 15.0344 20.625C15.0814 20.7064 15.1489 20.7739 15.2303 20.8209C15.3117 20.8679 15.4039 20.8927 15.4979 20.8928C15.5919 20.8928 15.6842 20.8682 15.7656 20.8213C15.847 20.7744 15.9147 20.7069 15.9618 20.6256C16.0089 20.5443 16.0337 20.4521 16.0339 20.3581C16.0341 20.2642 16.0096 20.1718 15.9628 20.0903C15.916 20.0089 15.8486 19.9411 15.7673 19.8939C15.6861 19.8467 15.5939 19.8217 15.4999 19.8214C14.7181 19.8229 14.0491 19.2603 13.9167 18.4897C13.7842 17.7192 14.2267 16.9655 14.9642 16.7057V16.6072C14.9642 16.4651 15.0206 16.3288 15.1211 16.2284C15.2216 16.1279 15.3578 16.0714 15.4999 16.0714C15.642 16.0714 15.7783 16.1279 15.8787 16.2284C15.9792 16.3288 16.0356 16.4651 16.0356 16.6072V16.7143C16.3947 16.8379 16.6983 17.0847 16.8928 17.4108C16.9433 17.4923 16.9709 17.5859 16.9729 17.6817C16.9749 17.7776 16.9511 17.8722 16.904 17.9557C16.8569 18.0393 16.7883 18.1086 16.7052 18.1566C16.6222 18.2045 16.5278 18.2293 16.432 18.2283C16.3361 18.2274 16.2423 18.2008 16.1602 18.1512C16.0781 18.1016 16.0109 18.0309 15.9655 17.9465C15.9185 17.8651 15.8509 17.7976 15.7695 17.7506C15.6882 17.7036 15.5959 17.6788 15.502 17.6787C15.408 17.6787 15.3157 17.7033 15.2343 17.7502C15.1528 17.7971 15.0852 17.8646 15.0381 17.9459C14.991 18.0272 14.9661 18.1194 14.9659 18.2134C14.9657 18.3073 14.9903 18.3997 15.0371 18.4812C15.0839 18.5626 15.1513 18.6304 15.2325 18.6776C15.3137 18.7248 15.406 18.7498 15.4999 18.7501C16.2817 18.7486 16.9507 19.3112 17.0832 20.0818C17.2157 20.8522 16.7731 21.606 16.0356 21.8657Z" fill="#1455D2"/>
<path fill-rule="evenodd" clip-rule="evenodd" d="M12.2857 30H18.7142C18.8563 30 18.9925 29.9436 19.093 29.8431C19.1935 29.7426 19.2499 29.6064 19.2499 29.4643C19.2499 29.3222 19.1935 29.1859 19.093 29.0855C18.9925 28.985 18.8563 28.9286 18.7142 28.9286H12.2857C12.1436 28.9286 12.0073 28.985 11.9068 29.0855C11.8064 29.1859 11.7499 29.3222 11.7499 29.4643C11.7499 29.6064 11.8064 29.7426 11.9068 29.8431C12.0073 29.9436 12.1436 30 12.2857 30ZM22.9999 21.4286H29.4284C29.5705 21.4286 29.7067 21.3722 29.8072 21.2717C29.9077 21.1712 29.9641 21.035 29.9641 20.8929C29.9641 20.7508 29.9077 20.6146 29.8072 20.5141C29.7067 20.4136 29.5705 20.3572 29.4284 20.3572H22.9999C22.8578 20.3572 22.7215 20.4136 22.6211 20.5141C22.5206 20.6146 22.4642 20.7508 22.4642 20.8929C22.4642 21.035 22.5206 21.1712 22.6211 21.2717C22.7215 21.3722 22.8578 21.4286 22.9999 21.4286Z" fill="#1455D2"/>
<path d="M26.2142 10.7144C23.8472 10.7144 21.9284 12.6331 21.9284 15.0001C21.9284 17.367 23.8472 19.2858 26.2142 19.2858C28.5811 19.2858 30.4999 17.367 30.4999 15.0001C30.4972 12.6342 28.58 10.717 26.2142 10.7144ZM26.7499 17.5801V17.6786C26.7499 17.8207 26.6934 17.957 26.593 18.0574C26.4925 18.1579 26.3562 18.2144 26.2142 18.2144C26.0721 18.2144 25.9358 18.1579 25.8353 18.0574C25.7349 17.957 25.6784 17.8207 25.6784 17.6786V17.5715C25.3193 17.4481 25.0155 17.2014 24.8213 16.875C24.7553 16.7524 24.7397 16.6088 24.7777 16.4749C24.8158 16.3409 24.9045 16.227 25.0251 16.1574C25.1457 16.0877 25.2887 16.0677 25.4238 16.1017C25.5588 16.1357 25.6753 16.2209 25.7486 16.3394C25.7956 16.4207 25.8632 16.4883 25.9445 16.5353C26.0259 16.5823 26.1182 16.6071 26.2121 16.6071C26.3061 16.6072 26.3984 16.5825 26.4798 16.5357C26.5612 16.4888 26.6289 16.4213 26.676 16.34C26.7231 16.2587 26.748 16.1664 26.7482 16.0725C26.7483 15.9785 26.7238 15.8862 26.677 15.8047C26.6302 15.7232 26.5628 15.6555 26.4816 15.6083C26.4003 15.5611 26.3081 15.5361 26.2142 15.5358C25.4323 15.5373 24.7634 14.9746 24.6309 14.2041C24.4984 13.4336 24.941 12.6798 25.6784 12.4201V12.3215C25.6784 12.1794 25.7349 12.0432 25.8353 11.9427C25.9358 11.8422 26.0721 11.7858 26.2142 11.7858C26.3562 11.7858 26.4925 11.8422 26.593 11.9427C26.6934 12.0432 26.7499 12.1794 26.7499 12.3215V12.4287C27.1091 12.552 27.4128 12.7988 27.607 13.1251C27.673 13.2478 27.6886 13.3913 27.6506 13.5253C27.6125 13.6592 27.5238 13.7731 27.4032 13.8428C27.2826 13.9124 27.1396 13.9324 27.0046 13.8984C26.8695 13.8645 26.753 13.7792 26.6797 13.6608C26.6327 13.5794 26.5651 13.5119 26.4838 13.4649C26.4024 13.4179 26.3101 13.3931 26.2162 13.393C26.1222 13.393 26.0299 13.4176 25.9485 13.4645C25.8671 13.5114 25.7994 13.5789 25.7523 13.6602C25.7052 13.7415 25.6803 13.8337 25.6802 13.9277C25.68 14.0216 25.7045 14.114 25.7513 14.1955C25.7981 14.2769 25.8655 14.3447 25.9467 14.3919C26.028 14.4391 26.1202 14.4641 26.2142 14.4644C26.996 14.4629 27.6649 15.0255 27.7974 15.7961C27.9299 16.5666 27.4873 17.3203 26.7499 17.5801Z" fill="#1455D2"/>
<path fill-rule="evenodd" clip-rule="evenodd" d="M22.9999 30H29.4284C29.5705 30 29.7067 29.9435 29.8072 29.843C29.9076 29.7426 29.9641 29.6063 29.9641 29.4642C29.9641 29.3222 29.9076 29.1859 29.8072 29.0854C29.7067 28.985 29.5705 28.9285 29.4284 28.9285H22.9999C22.8578 28.9285 22.7215 28.985 22.621 29.0854C22.5206 29.1859 22.4641 29.3222 22.4641 29.4642C22.4641 29.6063 22.5206 29.7426 22.621 29.843C22.7215 29.9435 22.8578 30 22.9999 30ZM22.9999 27.8571H29.4284C29.5705 27.8571 29.7067 27.8006 29.8072 27.7002C29.9076 27.5997 29.9641 27.4634 29.9641 27.3214C29.9641 27.1793 29.9076 27.043 29.8072 26.9425C29.7067 26.8421 29.5705 26.7856 29.4284 26.7856H22.9999C22.8578 26.7856 22.7215 26.8421 22.621 26.9425C22.5206 27.043 22.4641 27.1793 22.4641 27.3214C22.4641 27.4634 22.5206 27.5997 22.621 27.7002C22.7215 27.8006 22.8578 27.8571 22.9999 27.8571ZM22.9999 25.7143H29.4284C29.5705 25.7143 29.7067 25.6578 29.8072 25.5573C29.9076 25.4569 29.9641 25.3206 29.9641 25.1785C29.9641 25.0365 29.9076 24.9002 29.8072 24.7997C29.7067 24.6993 29.5705 24.6428 29.4284 24.6428H22.9999C22.8578 24.6428 22.7215 24.6993 22.621 24.7997C22.5206 24.9002 22.4641 25.0365 22.4641 25.1785C22.4641 25.3206 22.5206 25.4569 22.621 25.5573C22.7215 25.6578 22.8578 25.7143 22.9999 25.7143ZM22.9999 23.5714H29.4284C29.5705 23.5714 29.7067 23.515 29.8072 23.4145C29.9076 23.3141 29.9641 23.1778 29.9641 23.0357C29.9641 22.8936 29.9076 22.7574 29.8072 22.6569C29.7067 22.5564 29.5705 22.5 29.4284 22.5H22.9999C22.8578 22.5 22.7215 22.5564 22.621 22.6569C22.5206 22.7574 22.4641 22.8936 22.4641 23.0357C22.4641 23.1778 22.5206 23.3141 22.621 23.4145C22.7215 23.515 22.8578 23.5714 22.9999 23.5714ZM7.99994 28.9285H1.57143C1.42934 28.9285 1.29308 28.985 1.19261 29.0854C1.09215 29.1859 1.03571 29.3222 1.03571 29.4642C1.03571 29.6063 1.09215 29.7426 1.19261 29.843C1.29308 29.9435 1.42934 30 1.57143 30H7.99994C8.14202 30 8.27829 29.9435 8.37875 29.843C8.47922 29.7426 8.53566 29.6063 8.53566 29.4642C8.53566 29.3222 8.47922 29.1859 8.37875 29.0854C8.27829 28.985 8.14202 28.9285 7.99994 28.9285Z" fill="#1455D2"/>
<path d="M4.78572 27.8571C7.15268 27.8571 9.07145 25.9383 9.07145 23.5714C9.07145 21.2044 7.15268 19.2856 4.78572 19.2856C2.41877 19.2856 0.5 21.2045 0.5 23.5714C0.502637 25.9372 2.41988 27.8545 4.78572 27.8571ZM4.25 20.9914V20.8929C4.25 20.7508 4.30644 20.6145 4.40691 20.5141C4.50738 20.4136 4.64364 20.3571 4.78572 20.3571C4.92781 20.3571 5.06407 20.4136 5.16454 20.5141C5.265 20.6145 5.32145 20.7508 5.32145 20.8929V21C5.68046 21.1236 5.98413 21.3704 6.17861 21.6965C6.22907 21.778 6.25673 21.8716 6.25869 21.9674C6.26065 22.0633 6.23686 22.1579 6.18978 22.2414C6.1427 22.325 6.07406 22.3943 5.99104 22.4423C5.90802 22.4902 5.81365 22.515 5.71777 22.514C5.62191 22.5131 5.52805 22.4865 5.446 22.4369C5.36394 22.3873 5.29668 22.3166 5.25125 22.2322C5.20426 22.1508 5.1367 22.0833 5.05535 22.0363C4.97399 21.9893 4.88171 21.9645 4.78775 21.9644C4.69379 21.9644 4.60148 21.989 4.52006 22.0359C4.43864 22.0828 4.37099 22.1503 4.32389 22.2316C4.27679 22.3129 4.2519 22.4051 4.25172 22.4991C4.25155 22.593 4.27608 22.6854 4.32287 22.7669C4.36966 22.8483 4.43706 22.9161 4.5183 22.9633C4.59954 23.0105 4.69177 23.0355 4.78572 23.0358C5.56754 23.0343 6.2365 23.5969 6.36898 24.3675C6.50147 25.138 6.05891 25.8917 5.32145 26.1515V26.25C5.32144 26.3204 5.30758 26.3901 5.28065 26.455C5.25373 26.52 5.21426 26.5791 5.16452 26.6288C5.11477 26.6786 5.05571 26.718 4.99071 26.745C4.92571 26.7719 4.85605 26.7857 4.78569 26.7857C4.71534 26.7857 4.64568 26.7719 4.58068 26.7449C4.51569 26.718 4.45663 26.6786 4.40689 26.6288C4.35715 26.5791 4.31769 26.52 4.29077 26.455C4.26385 26.39 4.25 26.3203 4.25 26.25V26.1428C3.89098 26.0192 3.58732 25.7725 3.39283 25.4464C3.34237 25.3648 3.31472 25.2713 3.31275 25.1754C3.31079 25.0796 3.33459 24.9849 3.38167 24.9014C3.42875 24.8179 3.49738 24.7485 3.5804 24.7006C3.66343 24.6526 3.7578 24.6278 3.85367 24.6288C3.94954 24.6298 4.04339 24.6564 4.12545 24.706C4.20751 24.7555 4.27476 24.8262 4.3202 24.9106C4.36718 24.992 4.43475 25.0596 4.5161 25.1066C4.59746 25.1536 4.68974 25.1784 4.7837 25.1784C4.87765 25.1785 4.96997 25.1538 5.05139 25.1069C5.13281 25.0601 5.20046 24.9926 5.24756 24.9113C5.29466 24.83 5.31954 24.7377 5.31972 24.6438C5.3199 24.5498 5.29536 24.4575 5.24857 24.376C5.20178 24.2945 5.13438 24.2268 5.05314 24.1796C4.9719 24.1324 4.87968 24.1074 4.78572 24.1071C4.00391 24.1086 3.33494 23.5459 3.20246 22.7754C3.06998 22.0048 3.51254 21.2511 4.25 20.9914Z" fill="#1455D2"/>
</g>
<defs>
<clipPath id="clip0_251_408">
<rect width="30" height="30" fill="white" transform="translate(0.5)"/>
</clipPath>
</defs>
</svg>
