<svg width="42" height="42" viewBox="0 0 42 42" fill="none" xmlns="http://www.w3.org/2000/svg">
<rect width="42" height="42" rx="21" fill="#F5F5F5"/>
<path d="M28.7781 11.7054C28.5264 11.4536 28.1183 11.4537 27.8666 11.7054C27.6149 11.9571 27.6149 12.3652 27.8666 12.6169C29.7008 14.451 30.7109 16.8897 30.7109 19.4836C30.7109 19.8395 30.9996 20.1281 31.3555 20.1281C31.7115 20.1281 32 19.8395 32 19.4836C32 16.5453 30.8558 13.783 28.7781 11.7054ZM14.1333 11.7054C13.8815 11.4537 13.4735 11.4538 13.2218 11.7054C11.1442 13.7831 10 16.5454 10 19.4836C10 19.8395 10.2886 20.1281 10.6445 20.1281C11.0005 20.1281 11.2891 19.8395 11.2891 19.4836C11.2891 16.8898 12.2992 14.4511 14.1333 12.6169C14.385 12.3652 14.385 11.9571 14.1333 11.7054ZM25.9138 13.6578C25.6621 13.9096 25.6621 14.3176 25.9138 14.5694C27.2265 15.8819 27.9494 17.6272 27.9494 19.4836C27.9494 19.8395 28.238 20.1281 28.594 20.1281C28.9499 20.1281 29.2385 19.8395 29.2385 19.4836C29.2385 17.2828 28.3815 15.2139 26.8253 13.6578C26.5736 13.4061 26.1655 13.4062 25.9138 13.6578ZM16.0858 13.6581C15.8341 13.4065 15.4261 13.4065 15.1743 13.6582C13.6184 15.2143 12.7614 17.2832 12.7614 19.4836C12.7614 19.8395 13.0501 20.1281 13.406 20.1281C13.762 20.1281 14.0505 19.8395 14.0505 19.4836C14.0505 17.6275 14.7734 15.8823 16.0859 14.5697C16.3375 14.3179 16.3375 13.9098 16.0858 13.6581ZM26.4771 24.164V20.8643C26.4771 19.6607 26.0939 18.5187 25.369 17.5616C24.763 16.7616 23.9367 16.1367 23.0083 15.769C22.879 14.7759 22.0277 14.0065 21 14.0065C19.9723 14.0065 19.1209 14.7759 18.9917 15.769C18.0633 16.1367 17.237 16.7616 16.6311 17.5616C15.9061 18.5187 15.5229 19.6607 15.5229 20.8643V24.164L14.2102 26.7893C14.1611 26.8876 14.1379 26.9968 14.1429 27.1066C14.1478 27.2163 14.1807 27.323 14.2385 27.4164C14.2962 27.5099 14.3769 27.587 14.4729 27.6405C14.5688 27.694 14.6769 27.7221 14.7867 27.7221H27.2133C27.3232 27.7221 27.4312 27.6941 27.5272 27.6406C27.6232 27.5871 27.7039 27.51 27.7616 27.4165C27.8194 27.323 27.8523 27.2163 27.8572 27.1066C27.8622 26.9968 27.8389 26.8876 27.7898 26.7893L26.4771 24.164ZM21 30.4836C22.1604 30.4836 23.1865 29.8999 23.8017 29.0111H18.1982C18.8135 29.8999 19.8396 30.4836 21 30.4836Z" fill="#1455D2"/>
</svg>
