<svg width="15" height="16" viewBox="0 0 15 16" fill="none" xmlns="http://www.w3.org/2000/svg">
<path d="M14.71 5.03471C14.71 6.4442 14.3994 7.71631 13.7783 8.85106C13.1691 9.97387 12.3091 10.8876 11.1982 11.5924C10.0873 12.2852 8.80329 12.7032 7.34602 12.8466C7.38186 13.611 7.65062 14.1904 8.1523 14.5845C8.65397 14.9907 9.37066 15.1937 10.3024 15.1937C10.6487 15.1937 11.0847 15.1519 11.6103 15.0683L11.234 15.785C10.6607 15.9283 10.0575 16 9.42441 16C8.56439 16 7.76409 15.8567 7.02352 15.57C6.29489 15.2953 5.69765 14.9071 5.2318 14.4054C4.7779 13.9156 4.52109 13.3662 4.46137 12.757C3.028 12.5181 1.92311 11.9746 1.1467 11.1265C0.382232 10.2665 0 9.16163 0 7.81187C0 6.28294 0.35237 4.92721 1.05711 3.74468C1.7738 2.56215 2.77716 1.6424 4.06719 0.985442C5.35722 0.328481 6.8324 0 8.49272 0C10.4636 0 11.9925 0.441956 13.0795 1.32587C14.1665 2.19784 14.71 3.43412 14.71 5.03471ZM6.41433 11.7895C7.42964 11.7895 8.33147 11.4909 9.11982 10.8936C9.92012 10.2844 10.5412 9.4483 10.9832 8.38522C11.4371 7.31019 11.6641 6.09183 11.6641 4.73012C11.6641 3.54759 11.3774 2.65174 10.804 2.04255C10.2426 1.42143 9.4065 1.11086 8.29563 1.11086C7.26838 1.11086 6.35461 1.40948 5.55431 2.00672C4.76596 2.59201 4.1508 3.4162 3.70885 4.47928C3.26689 5.54237 3.04591 6.76073 3.04591 8.13438C3.04591 9.32885 3.32661 10.2367 3.88802 10.8578C4.46137 11.4789 5.30347 11.7895 6.41433 11.7895Z" fill="#0C0C0C"/>
</svg>
