<svg width="31" height="30" viewBox="0 0 31 30" fill="none" xmlns="http://www.w3.org/2000/svg">
<path d="M25.0156 10.3594H24.5656C24.5281 10.3594 24.4906 10.3125 24.4813 10.275C24.3204 9.76349 24.1133 9.2677 23.8625 8.79375C23.8438 8.75625 23.8344 8.7 23.8719 8.67188L24.1906 8.35312C24.4675 8.07008 24.6224 7.68972 24.6219 7.29375C24.6239 7.09739 24.5868 6.9026 24.5127 6.72073C24.4387 6.53885 24.3292 6.37353 24.1906 6.23438L22.3906 4.43438C22.1087 4.15522 21.728 3.99862 21.3313 3.99862C20.9345 3.99862 20.5538 4.15522 20.2719 4.43438L19.9531 4.75313C19.925 4.79063 19.8688 4.78125 19.8313 4.7625C19.3573 4.51186 18.8615 4.30476 18.35 4.14375C18.3125 4.13438 18.2656 4.09687 18.2656 4.05937V3.60937C18.2644 3.21193 18.106 2.83112 17.8249 2.55008C17.5439 2.26904 17.1631 2.11061 16.7656 2.10938H14.2344C13.8369 2.11061 13.4561 2.26904 13.1751 2.55008C12.8941 2.83112 12.7356 3.21193 12.7344 3.60937V4.05937C12.7344 4.09687 12.6875 4.13438 12.65 4.14375C12.1386 4.30476 11.6428 4.51186 11.1688 4.7625C11.1313 4.78125 11.075 4.79063 11.0469 4.75313L10.7281 4.43438C10.4462 4.15522 10.0655 3.99862 9.66877 3.99862C9.27202 3.99862 8.89131 4.15522 8.60939 4.43438L6.80939 6.23438C6.67084 6.37353 6.56136 6.53885 6.48732 6.72073C6.41328 6.9026 6.37617 7.09739 6.37814 7.29375C6.37765 7.68972 6.53249 8.07008 6.80939 8.35312L7.12814 8.67188C7.16564 8.7 7.15627 8.75625 7.13752 8.79375C6.88684 9.26774 6.67973 9.76353 6.51877 10.275C6.50939 10.3125 6.47189 10.3594 6.43439 10.3594H5.98439C5.58695 10.3606 5.20614 10.519 4.9251 10.8001C4.64406 11.0811 4.48563 11.4619 4.48439 11.8594V14.3906C4.48391 14.6121 4.5334 14.8307 4.62917 15.0304C4.72494 15.2301 4.86452 15.4055 5.03752 15.5437C5.29866 14.8709 5.75133 14.2894 6.33952 13.8712C6.92772 13.4529 7.62562 13.2163 8.34689 13.1906C9.22135 13.1996 10.0595 13.5416 10.6906 14.1469C10.6152 13.8115 10.5774 13.4688 10.5781 13.125C10.5781 11.8196 11.0967 10.5677 12.0197 9.64471C12.9428 8.72168 14.1947 8.20312 15.5 8.20312C16.8054 8.20312 18.0573 8.72168 18.9803 9.64471C19.9033 10.5677 20.4219 11.8196 20.4219 13.125C20.4226 13.4688 20.3849 13.8115 20.3094 14.1469C20.9405 13.5416 21.7787 13.1996 22.6531 13.1906C23.3744 13.2165 24.0722 13.4531 24.6604 13.8713C25.2486 14.2896 25.7013 14.871 25.9625 15.5437C26.1355 15.4055 26.275 15.23 26.3708 15.0304C26.4665 14.8307 26.5161 14.612 26.5156 14.3906V11.8594C26.5144 11.4619 26.356 11.0811 26.0749 10.8001C25.7939 10.519 25.4131 10.3606 25.0156 10.3594ZM19.3203 24.3478L17.4538 23.7262C17.397 23.7068 17.3467 23.6723 17.308 23.6264C17.2694 23.5805 17.2439 23.525 17.2344 23.4658C17.2249 23.4066 17.2316 23.3459 17.2539 23.2902C17.2762 23.2345 17.3132 23.186 17.361 23.1497C17.8234 22.744 18.1914 22.2419 18.4391 21.6788C18.6867 21.1156 18.808 20.505 18.7944 19.89C18.7944 17.7075 17.3188 15.9375 15.5 15.9375C13.6813 15.9375 12.2056 17.7075 12.2056 19.89C12.192 20.505 12.3133 21.1156 12.561 21.6788C12.8086 22.2419 13.1766 22.744 13.6391 23.1497C13.6868 23.186 13.7238 23.2345 13.7461 23.2902C13.7684 23.3459 13.7752 23.4066 13.7656 23.4658C13.7561 23.525 13.7307 23.5805 13.692 23.6264C13.6534 23.6723 13.603 23.7068 13.5463 23.7262L11.6797 24.3478C11.2254 24.4992 10.8095 24.7478 10.4611 25.0763C10.1126 25.4048 9.84003 25.8054 9.66221 26.25L9.27314 27.2212C9.23315 27.3213 9.21829 27.4296 9.22984 27.5367C9.2414 27.6437 9.27903 27.7464 9.33944 27.8356C9.39985 27.9247 9.4812 27.9978 9.57637 28.0482C9.67153 28.0987 9.77762 28.125 9.88533 28.125H21.1147C21.2224 28.125 21.3285 28.0987 21.4237 28.0482C21.5188 27.9978 21.6002 27.9247 21.6606 27.8356C21.721 27.7464 21.7586 27.6437 21.7702 27.5367C21.7818 27.4296 21.7669 27.3213 21.7269 27.2212L21.3378 26.25C21.16 25.8054 20.8874 25.4048 20.539 25.0763C20.1905 24.7478 19.7747 24.4992 19.3203 24.3478Z" fill="#1455D2"/>
<path d="M12.3406 23.1376L11.3844 23.4563C10.809 23.6485 10.2816 23.9618 9.83752 24.375H3.6219C3.53178 24.3746 3.44315 24.352 3.3638 24.3093C3.28445 24.2666 3.2168 24.205 3.16681 24.13C3.11682 24.055 3.08601 23.9689 3.07709 23.8792C3.06817 23.7895 3.08141 23.699 3.11565 23.6157L3.4344 22.8C3.58597 22.4269 3.81591 22.0907 4.10866 21.8141C4.40141 21.5375 4.75014 21.3271 5.13127 21.1969L6.70627 20.6719C6.75429 20.6569 6.79715 20.6287 6.83 20.5905C6.86285 20.5524 6.8844 20.5059 6.8922 20.4561C6.9 20.4064 6.89374 20.3555 6.87414 20.3092C6.85454 20.2628 6.82238 20.2228 6.78127 20.1938C6.39369 19.8506 6.08555 19.4271 5.87831 18.9527C5.67106 18.4783 5.5697 17.9645 5.58127 17.4469C5.51386 16.6413 5.76619 15.8416 6.28371 15.2206C6.80123 14.5995 7.54237 14.2071 8.3469 14.1282C9.15234 14.2067 9.89466 14.5986 10.4138 15.2195C10.9329 15.8403 11.1872 16.6403 11.1219 17.4469C11.1339 17.9654 11.0318 18.4802 10.8228 18.9549C10.6138 19.4296 10.3031 19.8525 9.91252 20.1938C9.87324 20.224 9.84282 20.2641 9.82444 20.3101C9.80606 20.3561 9.80041 20.4062 9.80809 20.4551C9.81576 20.504 9.83648 20.55 9.86805 20.5882C9.89963 20.6263 9.9409 20.6552 9.98752 20.6719L11.4219 21.15C11.5765 21.8727 11.8903 22.5517 12.3406 23.1376ZM27.3781 24.375H21.1625C20.7185 23.9618 20.191 23.6485 19.6156 23.4563L18.6594 23.1376C19.1098 22.5517 19.4237 21.8727 19.5781 21.15L21.0125 20.6719C21.0591 20.6552 21.1004 20.6263 21.132 20.5882C21.1636 20.55 21.1843 20.504 21.192 20.4551C21.1996 20.4062 21.194 20.3561 21.1756 20.3101C21.1572 20.2641 21.1268 20.224 21.0875 20.1938C20.697 19.8525 20.3862 19.4296 20.1772 18.9549C19.9682 18.4802 19.8661 17.9654 19.8781 17.4469C19.8128 16.6403 20.0672 15.8403 20.5863 15.2195C21.1054 14.5986 21.8477 14.2067 22.6531 14.1282C23.4577 14.2071 24.1988 14.5995 24.7163 15.2206C25.2339 15.8416 25.4862 16.6413 25.4188 17.4469C25.4303 17.9645 25.329 18.4783 25.1217 18.9527C24.9145 19.4271 24.6064 19.8506 24.2188 20.1938C24.1777 20.2228 24.1455 20.2628 24.1259 20.3092C24.1063 20.3555 24.1 20.4064 24.1078 20.4561C24.1156 20.5059 24.1372 20.5524 24.17 20.5905C24.2029 20.6287 24.2457 20.6569 24.2938 20.6719L25.8688 21.1969C26.2499 21.3271 26.5986 21.5375 26.8914 21.8141C27.1841 22.0907 27.4141 22.4269 27.5656 22.8L27.8844 23.6157C27.9186 23.699 27.9319 23.7895 27.923 23.8792C27.914 23.9689 27.8832 24.055 27.8332 24.13C27.7832 24.205 27.7156 24.2666 27.6362 24.3093C27.5569 24.352 27.4683 24.3746 27.3781 24.375Z" fill="#1455D2"/>
</svg>
